<?xml version="1.0" standalone="no"?>
<!DOCTYPE svg PUBLIC "-//W3C//DTD SVG 20010904//EN"
 "http://www.w3.org/TR/2001/REC-SVG-20010904/DTD/svg10.dtd">
<svg version="1.0" xmlns="http://www.w3.org/2000/svg"
 width="1024.000000pt" height="1024.000000pt" viewBox="0 0 1024.000000 1024.000000"
 preserveAspectRatio="xMidYMid meet">

<g transform="translate(0.000000,1024.000000) scale(0.100000,-0.100000)"
fill="#000000" stroke="none">
<path d="M9303 10202 c-17 -20 -50 -59 -73 -87 -95 -115 -190 -225 -235 -271
-16 -17 -55 -58 -85 -91 -190 -206 -379 -408 -439 -470 -7 -8 -12 -15 -10 -17
2 -2 74 -27 159 -56 140 -47 383 -157 500 -226 118 -69 229 -150 369 -267 61
-51 81 -63 81 -49 0 10 9 54 21 98 11 43 22 86 24 95 2 9 8 33 14 55 6 21 20
80 31 129 11 50 27 113 35 142 7 29 16 65 19 80 2 15 18 87 35 158 17 72 38
162 46 200 7 39 34 162 58 275 25 113 47 219 50 235 3 17 8 47 12 68 l7 37
-293 0 -294 -1 -32 -37z"/>
<path d="M723 9730 c-35 -9 -63 -16 -63 -14 0 11 -182 -90 -218 -122 -49 -41
-63 -69 -52 -99 7 -18 37 -144 44 -185 2 -8 6 -22 9 -30 3 -8 8 -28 11 -45 12
-60 116 -472 151 -595 32 -114 71 -254 92 -332 l15 -56 73 86 c176 210 401
384 665 511 76 37 256 99 335 116 l30 7 -60 55 c-113 104 -329 308 -400 376
-232 225 -340 323 -368 334 -46 17 -191 13 -264 -7z"/>
<path d="M5473 9545 c-26 -18 -26 2 7 -305 11 -107 24 -234 27 -283 l6 -87
-36 15 c-46 19 -120 19 -156 1 -42 -22 -89 -81 -96 -120 -14 -74 24 -150 95
-186 73 -37 161 -17 232 52 48 46 62 95 54 181 -3 38 -9 106 -11 151 -3 44 -8
97 -10 117 -3 19 -7 72 -11 117 l-6 81 28 -9 c16 -4 72 -22 124 -39 52 -17
132 -43 178 -58 l82 -26 1 -36 c0 -20 2 -43 3 -51 6 -26 17 -162 21 -251 l4
-87 -57 5 c-47 4 -65 1 -102 -19 -128 -69 -148 -246 -32 -295 79 -33 185 4
244 86 l33 46 -2 150 c-1 132 -17 406 -28 490 -2 17 -7 65 -11 108 -4 46 -13
84 -21 93 -8 7 -40 21 -71 29 -31 9 -79 23 -107 31 -116 36 -335 104 -347 109
-7 3 -23 -2 -35 -10z"/>
<path d="M3760 9295 c-13 -15 -12 -29 9 -170 13 -88 44 -307 65 -452 l13 -92
-55 4 c-87 7 -141 -22 -194 -104 -69 -110 0 -241 128 -241 70 0 149 41 189 98
27 39 30 52 30 115 0 40 -3 97 -7 127 -8 61 -25 182 -38 275 -26 190 -29 177
32 151 18 -8 55 -22 81 -31 69 -24 106 -59 113 -106 6 -33 10 -40 28 -37 12 2
29 18 39 38 15 29 17 49 12 119 -7 92 -21 136 -52 164 -28 24 -329 157 -357
157 -13 0 -29 -7 -36 -15z"/>
<path d="M6837 9023 c-15 -18 -53 -145 -82 -278 -52 -241 -64 -294 -75 -333
-10 -41 -13 -43 -29 -28 -49 44 -147 59 -204 30 -131 -66 -150 -221 -34 -280
45 -24 163 -21 220 6 81 38 82 40 157 365 22 94 40 178 40 188 0 29 24 19 72
-30 67 -70 82 -105 69 -159 -18 -69 -15 -87 12 -79 76 24 142 167 123 268 -4
20 -41 83 -86 147 -44 61 -82 122 -86 133 -9 30 -44 67 -64 67 -9 0 -24 -8
-33 -17z"/>
<path d="M4550 8601 c-13 -9 -15 -63 -18 -362 -3 -327 -4 -350 -20 -343 -9 4
-38 12 -64 17 -68 15 -122 -3 -179 -62 -114 -118 -55 -271 105 -274 58 -2 122
25 172 71 63 58 65 66 71 378 6 283 6 284 27 278 11 -4 86 -35 166 -69 80 -34
162 -68 183 -76 l37 -13 0 -234 c0 -219 -1 -234 -17 -227 -10 3 -38 9 -63 11
-36 4 -55 -1 -95 -23 -93 -52 -136 -153 -101 -236 29 -70 140 -96 227 -52 43
22 108 83 122 115 6 16 11 141 13 332 1 169 8 355 14 413 11 90 11 108 -1 120
-8 8 -86 46 -174 85 -88 39 -198 90 -245 112 -93 43 -137 54 -160 39z"/>
<path d="M7435 8184 c-282 -44 -507 -189 -650 -418 -90 -146 -133 -285 -142
-461 -5 -105 -2 -134 20 -231 44 -193 120 -328 259 -460 158 -150 360 -235
593 -250 l105 -7 10 -36 c15 -56 14 -62 -49 -154 -128 -187 -450 -532 -673
-720 -49 -42 -60 -47 -78 -37 -11 6 -96 66 -188 133 -92 68 -228 165 -302 217
-236 164 -240 167 -240 201 0 40 -22 89 -54 118 -14 14 -26 30 -26 37 0 7 32
41 72 77 66 59 71 66 58 83 -23 27 -92 74 -101 68 -5 -2 -32 -38 -60 -79 -28
-41 -57 -75 -63 -75 -6 0 -30 17 -54 38 l-44 37 20 25 c11 14 43 39 71 55 28
17 53 37 56 45 6 15 -83 110 -103 110 -5 0 -32 -36 -61 -80 -29 -44 -57 -83
-62 -85 -10 -7 -109 56 -109 70 0 10 110 110 128 117 5 1 12 13 16 24 5 18 -2
28 -44 58 -27 20 -54 36 -59 36 -5 0 -26 -25 -46 -56 -21 -31 -51 -71 -67 -90
l-30 -34 -25 20 c-33 25 -73 26 -100 0 -12 -10 -45 -63 -74 -117 -28 -54 -76
-139 -105 -190 -54 -92 -59 -107 -48 -137 5 -12 72 -66 148 -118 5 -4 -3 -21
-20 -42 -64 -77 -75 -96 -69 -113 7 -22 92 -75 113 -71 8 2 22 26 31 54 9 28
23 62 32 75 l16 24 47 -39 c26 -21 50 -45 53 -53 3 -9 -11 -32 -36 -57 -56
-57 -54 -77 14 -116 57 -33 85 -34 85 -3 0 10 13 39 28 65 l27 47 55 -35 c46
-29 63 -34 105 -33 43 2 59 -3 105 -33 82 -52 84 -56 60 -118 -53 -136 -12
-323 87 -397 77 -56 113 -67 218 -68 106 0 142 12 221 71 l31 23 202 -150
c110 -82 201 -151 201 -154 0 -2 -16 -43 -35 -90 -93 -232 -82 -451 30 -604
82 -111 227 -183 407 -202 49 -5 97 -13 107 -18 10 -6 26 -37 36 -71 l18 -61
-29 -32 c-126 -137 -255 -279 -283 -312 -19 -22 -52 -60 -75 -85 -72 -80 -140
-162 -224 -272 -138 -181 -139 -182 -183 -405 -35 -178 -92 -501 -104 -593 -2
-19 -18 -120 -34 -225 -16 -104 -32 -219 -36 -255 -16 -169 -16 -169 -60 -170
-43 -1 -265 -50 -360 -80 -174 -56 -266 -114 -306 -191 -50 -100 2 -170 156
-209 62 -16 114 -20 244 -21 91 -1 189 2 216 5 329 48 383 102 311 311 -25 72
-28 89 -23 175 6 104 51 447 92 700 2 14 11 79 20 145 9 66 34 210 56 320 37
188 41 203 84 275 83 136 572 710 606 710 4 0 12 -14 18 -31 14 -42 84 -152
133 -211 70 -84 210 -177 316 -208 l42 -13 1 -61 c0 -34 2 -79 4 -101 2 -22 6
-83 9 -135 8 -135 30 -277 47 -311 26 -50 354 -477 699 -909 99 -124 180 -229
180 -233 0 -4 -6 -9 -12 -11 -179 -55 -241 -77 -334 -121 -120 -58 -161 -88
-205 -149 -35 -47 -38 -97 -9 -143 23 -39 75 -67 153 -83 62 -13 305 -17 372
-7 22 4 60 9 85 12 78 10 102 15 202 47 120 37 158 71 158 143 0 50 -10 78
-59 154 -35 56 -222 306 -360 482 -42 53 -114 145 -161 205 -293 372 -507 660
-523 701 -19 48 -47 302 -47 426 l0 67 73 1 c39 0 79 2 87 4 265 52 497 218
670 479 68 101 122 209 151 298 82 256 62 545 -50 742 -73 127 -210 257 -347
328 l-61 32 48 111 c93 216 89 264 -38 464 -46 73 -158 221 -224 296 -133 154
-401 415 -581 565 -43 35 -78 67 -78 70 1 3 33 24 73 47 106 62 176 121 244
206 157 195 224 400 210 647 -13 222 -102 422 -261 583 -201 202 -494 302
-761 261z m330 -174 c258 -81 437 -262 516 -520 19 -61 23 -98 24 -205 0 -149
-11 -205 -65 -321 -184 -398 -643 -560 -1035 -367 -80 40 -191 128 -245 196
-60 75 -123 198 -147 287 -25 92 -24 282 1 375 98 365 397 592 766 581 82 -3
135 -10 185 -26z m-2248 -1677 c16 -10 62 -44 103 -75 41 -31 120 -91 175
-132 55 -41 120 -92 144 -114 44 -39 44 -39 42 -102 -3 -78 7 -93 108 -165 44
-31 83 -60 86 -65 3 -5 -8 -16 -25 -25 -31 -16 -32 -16 -108 33 -96 62 -129
72 -217 69 l-71 -2 -199 150 c-110 83 -206 155 -212 162 -15 13 -17 35 -4 49
4 5 35 60 67 122 32 61 64 112 71 112 7 0 25 -8 40 -17z m2387 -119 c309 -257
707 -687 793 -859 41 -80 39 -101 -21 -222 -96 -195 -186 -332 -337 -508 -101
-119 -163 -175 -192 -175 -38 0 -89 -21 -132 -54 -53 -41 -71 -62 -101 -120
-89 -169 11 -351 186 -342 180 9 340 216 309 400 -6 38 -3 43 98 169 57 71
127 163 154 203 27 40 53 75 59 79 16 10 140 -60 212 -120 81 -68 149 -166
185 -270 26 -74 28 -91 28 -235 0 -132 -4 -167 -23 -235 -63 -220 -232 -458
-418 -591 -214 -153 -488 -177 -704 -62 -172 91 -275 246 -364 548 -21 72 -45
133 -57 146 -41 44 -125 72 -262 89 -120 14 -238 88 -282 175 -32 63 -46 170
-34 255 10 72 42 164 67 195 17 21 18 20 167 -85 83 -58 187 -132 231 -163
l82 -57 6 -54 c11 -89 60 -151 156 -195 90 -42 96 -39 103 48 12 156 120 294
265 337 39 11 43 15 37 38 -11 46 -77 131 -122 158 -38 22 -52 25 -116 21
l-72 -4 -125 82 c-149 98 -285 191 -324 221 l-28 23 26 35 c65 85 196 141 313
132 150 -11 236 -82 288 -236 10 -30 30 -62 50 -79 32 -29 39 -30 152 -36 65
-3 153 -8 195 -11 l77 -5 45 64 c25 35 46 66 46 69 0 3 -21 8 -48 12 l-47 6
-29 137 c-43 203 -125 528 -162 645 -9 26 -24 52 -34 57 -26 14 -79 -7 -86
-34 -3 -13 6 -70 20 -127 31 -125 63 -279 72 -334 11 -78 55 -290 64 -312 9
-23 8 -23 -58 -23 -100 0 -104 3 -137 78 -19 44 -49 88 -87 128 l-58 61 0 90
c0 132 -36 541 -56 633 -2 14 -9 48 -14 75 -4 28 -13 70 -19 95 -7 31 -7 48 1
57 15 19 26 16 62 -13z m-203 -236 c0 -13 2 -32 5 -43 2 -11 6 -40 9 -65 3
-25 8 -56 10 -70 10 -54 25 -211 31 -329 7 -120 6 -124 -12 -116 -38 16 -130
16 -201 1 -107 -22 -194 -68 -274 -143 l-70 -66 -83 57 c-46 31 -89 62 -95 70
-8 10 33 56 187 207 173 170 328 337 442 477 39 48 50 52 51 20z m-1324 -437
c110 -50 140 -232 55 -333 -51 -60 -158 -86 -220 -54 -67 35 -112 111 -112
188 1 159 142 260 277 199z m308 -216 c39 -28 243 -168 320 -219 33 -22 196
-136 362 -254 l303 -214 -16 -27 c-9 -14 -26 -39 -39 -55 l-23 -29 -224 164
c-237 174 -569 419 -680 503 -71 53 -73 58 -62 128 7 40 9 40 59 3z m-137
-4097 c15 -19 44 -126 37 -137 -14 -24 -242 -49 -404 -44 -100 2 -192 20 -198
39 -9 27 150 84 362 129 125 27 188 31 203 13z m2654 -126 c26 -35 48 -67 48
-71 0 -10 -86 -36 -184 -56 -147 -30 -384 -32 -426 -4 -40 26 131 108 365 175
122 35 139 31 197 -44z"/>
<path d="M7096 7549 c-63 -49 -95 -192 -66 -294 24 -86 94 -121 152 -75 60 47
77 235 30 327 -34 65 -70 78 -116 42z"/>
<path d="M7500 7054 c-81 -84 -188 -144 -328 -185 -76 -22 -92 -33 -92 -66 0
-37 16 -60 64 -88 65 -38 143 -58 199 -51 170 20 316 194 293 349 -15 97 -68
112 -136 41z"/>
<path d="M8548 4232 c-13 -16 -63 -87 -112 -158 -48 -71 -112 -165 -142 -208
-59 -86 -73 -120 -57 -145 15 -24 58 -36 85 -24 28 13 338 470 338 498 0 64
-70 87 -112 37z"/>
<path d="M2498 8170 c-184 -31 -349 -121 -491 -267 -279 -288 -327 -731 -116
-1086 68 -114 198 -233 338 -309 18 -10 29 -22 26 -30 -3 -8 -63 -53 -133
-100 -256 -175 -405 -292 -647 -509 -221 -199 -354 -348 -416 -469 -29 -57
-33 -75 -33 -145 -1 -74 2 -87 41 -167 23 -48 61 -115 84 -150 54 -80 281
-377 373 -488 39 -46 78 -93 86 -104 8 -10 49 -58 91 -105 52 -59 78 -97 83
-121 15 -84 112 -178 208 -200 106 -26 235 7 299 77 52 56 72 110 67 184 -8
105 -65 182 -161 218 -42 16 -169 13 -243 -5 -56 -14 -67 -15 -78 -3 -7 8 -47
50 -88 95 -134 146 -375 473 -472 644 -70 121 -71 146 -8 241 81 120 296 326
536 513 109 85 216 160 221 154 2 -1 -22 -100 -52 -218 -77 -300 -181 -760
-198 -872 l-7 -45 39 -6 c21 -4 70 -9 109 -13 66 -6 76 -4 122 21 98 53 102
61 151 300 53 256 72 340 106 470 20 77 38 145 39 150 1 6 6 26 10 45 5 19 10
38 13 42 2 4 36 -54 75 -130 225 -437 455 -729 688 -873 108 -68 93 -67 236
-14 125 47 163 65 135 65 -53 0 -285 139 -385 231 -195 178 -420 557 -577 974
-57 151 -65 185 -50 214 10 19 21 21 90 21 204 0 459 79 568 176 32 28 36 35
23 44 -8 5 -36 10 -61 10 -61 0 -141 24 -214 65 -97 54 -145 118 -145 195 0
48 24 76 72 85 31 6 59 1 278 -45 111 -23 141 -27 237 -35 l72 -6 17 33 c42
81 84 267 84 373 0 87 -27 228 -61 315 -109 283 -360 490 -674 555 -74 16
-228 18 -307 5z m621 -628 c54 -53 64 -246 16 -318 -19 -29 -58 -40 -91 -25
-81 37 -89 281 -12 346 38 32 53 31 87 -3z"/>
<path d="M5810 8075 c-26 -31 -107 -592 -95 -655 5 -23 -10 -25 -45 -5 -31 18
-99 19 -152 3 -83 -25 -149 -123 -134 -201 29 -155 281 -157 371 -3 24 41 32
83 49 246 2 25 10 102 17 173 7 70 16 127 19 127 17 0 142 -115 151 -138 6
-16 8 -55 4 -94 -7 -81 5 -88 54 -33 39 44 55 102 56 191 0 80 -6 93 -106 206
-61 69 -109 137 -109 155 0 18 -29 43 -49 43 -10 0 -24 -7 -31 -15z"/>
<path d="M4970 7049 c-19 -35 4 -74 117 -194 107 -114 133 -131 161 -103 32
32 2 84 -128 221 -97 102 -128 118 -150 76z"/>
<path d="M3860 7011 c-91 -28 -162 -87 -202 -168 -27 -56 -32 -77 -32 -137 0
-121 65 -225 172 -277 51 -25 140 -28 198 -7 32 11 36 10 111 -48 l78 -60 2
-329 c2 -182 3 -412 3 -512 l0 -181 35 -20 c33 -20 36 -20 74 -4 l41 17 0 380
c0 209 0 424 0 478 l0 97 150 -101 c161 -110 182 -117 241 -82 60 35 96 141
64 189 -8 12 -124 104 -257 205 -351 263 -318 233 -318 295 0 146 -130 275
-275 273 -33 0 -71 -4 -85 -8z"/>
<path d="M5933 6972 c-14 -9 -83 -169 -83 -193 0 -23 25 -41 52 -37 17 2 32
20 56 68 43 86 51 136 26 155 -22 16 -34 18 -51 7z"/>
<path d="M6355 6628 c-60 -33 -155 -112 -155 -128 0 -68 45 -67 147 3 87 59
104 91 61 121 -26 19 -27 19 -53 4z"/>
<path d="M4891 6596 c-7 -8 -11 -27 -9 -42 3 -24 14 -33 92 -67 121 -53 155
-51 156 10 0 29 -25 44 -129 82 -98 36 -95 35 -110 17z"/>
<path d="M4739 5747 c-44 -29 -49 -69 -16 -117 19 -28 30 -35 54 -34 40 2 82
33 83 61 0 26 -18 71 -38 96 -20 23 -42 22 -83 -6z"/>
<path d="M4521 5652 c-31 -25 -33 -32 -27 -65 12 -63 71 -93 130 -66 32 15 38
52 17 109 -15 40 -20 45 -51 48 -26 2 -43 -4 -69 -26z"/>
<path d="M4783 5548 c-131 -66 -250 -129 -264 -139 -17 -12 -29 -32 -34 -56
-10 -56 -21 -71 -73 -97 -86 -45 -88 -47 -60 -88 14 -20 35 -68 48 -107 12
-39 26 -71 31 -71 4 0 40 7 80 15 66 14 77 14 121 -1 63 -21 87 -17 303 45 99
28 197 56 218 62 48 13 77 41 77 77 0 29 -136 449 -152 470 -6 6 -21 12 -34
12 -13 0 -130 -55 -261 -122z"/>
<path d="M5620 5253 c-27 -7 -180 -216 -180 -244 0 -32 21 -52 51 -47 29 4
186 201 192 241 6 43 -19 63 -63 50z"/>
<path d="M4020 5219 c-71 -30 -129 -106 -130 -171 0 -19 -7 -29 -22 -33 -43
-13 -493 -187 -628 -243 -74 -30 -243 -99 -375 -153 l-240 -97 -11 26 c-13 33
-8 36 127 86 243 89 339 130 339 143 0 24 -71 117 -144 189 -127 126 -233 169
-380 153 -98 -10 -174 -52 -287 -160 -143 -136 -198 -157 -351 -132 -126 20
-298 43 -330 43 -15 0 -28 -4 -28 -9 0 -11 76 -104 194 -236 132 -148 164
-178 183 -171 9 4 38 10 63 13 32 4 56 16 84 41 114 101 275 107 395 12 146
-115 170 -338 52 -473 -35 -39 -140 -97 -177 -97 -12 0 -35 -11 -51 -24 -68
-57 -111 -70 -223 -71 -89 0 -112 3 -151 23 -70 34 -124 86 -162 155 -19 35
-126 175 -238 312 -113 138 -231 284 -263 325 -33 41 -61 77 -63 79 -8 11 -74
-32 -134 -87 -152 -140 -233 -327 -238 -549 -10 -457 255 -884 619 -1001 158
-50 287 -54 420 -12 156 48 316 175 431 341 87 127 149 191 218 228 58 31 60
31 208 31 159 0 215 10 303 55 191 98 280 322 224 566 -13 57 -19 70 -33 66
-9 -3 -118 -47 -244 -98 -125 -50 -229 -90 -232 -87 -2 2 -6 15 -7 28 -3 22
12 30 217 112 121 49 321 131 445 182 222 93 368 148 423 162 21 5 34 1 50
-14 95 -89 258 -76 372 29 26 24 59 66 73 94 24 44 27 62 27 145 0 78 -4 102
-22 135 -27 51 -85 109 -132 131 -43 21 -136 28 -171 13z m-2532 -986 c22 -19
192 -466 192 -505 0 -54 -75 -80 -105 -35 -22 35 -175 463 -175 492 0 27 31
65 54 65 8 0 23 -8 34 -17z"/>
<path d="M5025 5028 c-27 -15 -25 -13 -30 -36 -6 -31 12 -86 35 -107 22 -20
79 -14 105 11 23 23 20 99 -5 124 -22 22 -73 26 -105 8z"/>
<path d="M4812 4968 c-27 -13 -42 -62 -31 -102 11 -36 10 -36 55 -46 47 -11
82 2 90 35 9 36 -2 106 -18 116 -18 12 -68 10 -96 -3z"/>
<path d="M5861 4888 c-10 -26 -20 -136 -21 -220 l0 -57 -27 15 c-40 20 -59 17
-82 -12 -38 -48 -18 -126 42 -162 41 -26 58 -27 97 -7 36 18 46 54 56 185 l7
94 36 -44 c20 -25 63 -73 95 -107 l59 -63 -7 -102 c-4 -57 -9 -145 -13 -196
-5 -80 -8 -92 -22 -86 -62 25 -117 23 -176 -8 -51 -27 -95 -93 -95 -143 0 -41
36 -102 71 -119 44 -22 125 -20 179 5 111 50 124 88 136 379 3 85 12 189 20
230 8 41 14 83 14 93 0 10 -27 34 -69 61 -73 47 -137 120 -194 224 -28 49 -37
57 -65 60 -26 3 -34 -1 -41 -20z"/>
<path d="M4310 4645 c-13 -14 -45 -39 -72 -56 l-48 -31 -1 -132 c-1 -72 -1
-851 0 -1731 l1 -1600 -221 -94 c-121 -52 -233 -104 -249 -117 -31 -27 -46
-79 -28 -101 10 -12 92 -14 527 -11 284 1 561 5 616 8 93 5 100 7 112 29 9 20
9 32 -3 60 -8 20 -22 42 -31 49 -18 13 -173 65 -413 138 -79 24 -149 49 -154
54 -6 6 -9 675 -8 1785 1 976 0 1775 -1 1775 -2 0 -14 -11 -27 -25z"/>
<path d="M5010 4605 c-13 -16 -10 -169 7 -409 6 -87 6 -88 -15 -77 -35 18
-105 13 -152 -12 -60 -31 -101 -85 -107 -139 -6 -57 8 -90 53 -125 79 -59 219
-22 285 76 l30 46 -6 150 c-3 83 -8 179 -11 214 -5 59 -5 63 13 57 10 -4 67
-24 127 -43 132 -45 139 -42 146 48 3 35 3 80 0 99 -6 39 -14 43 -218 101
-117 33 -135 35 -152 14z"/>
<path d="M2570 3595 c-55 -25 -95 -60 -130 -116 -29 -44 -31 -52 -18 -60 95
-53 603 -533 745 -703 45 -54 52 -67 48 -97 -3 -19 -12 -92 -20 -164 -28 -233
-69 -498 -160 -1030 -14 -82 -27 -157 -30 -165 -18 -62 -32 -205 -22 -228 22
-48 109 -60 438 -60 242 1 416 15 459 38 23 12 35 50 26 84 -19 75 -209 160
-498 221 -88 19 -86 13 -63 120 20 91 71 395 79 465 4 30 13 109 20 175 59
502 67 671 37 721 -51 83 -628 676 -741 761 -65 49 -118 61 -170 38z"/>
<path d="M4685 3298 l-26 -23 1 -877 0 -878 -22 -1 c-13 -1 -36 -1 -53 0 -32
2 -85 -17 -85 -29 0 -14 30 -40 53 -45 12 -3 423 -4 912 -3 l890 3 3 27 c3 22
-2 30 -23 38 -14 5 -39 10 -55 10 l-29 0 0 877 0 876 -21 21 c-20 21 -24 21
-770 24 l-748 2 -27 -22z m1354 -204 c21 -26 21 -34 21 -716 l0 -689 -22 -8
c-13 -5 -31 -5 -40 0 -17 9 -18 54 -20 682 l-3 672 -520 0 -520 0 -5 -673 c-4
-583 -7 -674 -20 -682 -23 -15 -38 -12 -50 9 -6 13 -10 249 -10 696 l0 677 29
29 29 29 556 0 555 0 20 -26z m-514 -258 c91 -22 145 -48 203 -101 128 -115
181 -269 147 -428 -44 -211 -198 -349 -405 -364 -173 -13 -329 77 -408 233
-57 114 -67 230 -28 338 64 176 174 282 334 320 74 18 85 18 157 2z"/>
<path d="M5360 2746 c-170 -45 -292 -244 -260 -424 23 -135 100 -233 213 -270
314 -103 573 179 455 496 -21 57 -95 140 -151 169 -79 41 -175 52 -257 29z"/>
<path d="M2094 3127 c-33 -23 -98 -57 -143 -76 l-83 -34 7 -36 c3 -20 17 -72
30 -116 29 -99 75 -305 81 -365 5 -42 -1 -56 -101 -230 -134 -231 -234 -387
-360 -560 -121 -166 -384 -557 -419 -624 -41 -77 -32 -124 31 -160 46 -26 364
-51 628 -50 249 1 320 23 320 103 0 32 -7 47 -35 75 -42 44 -156 104 -280 146
-166 57 -180 62 -180 75 0 6 68 112 151 235 156 231 331 516 473 769 l81 146
-1 90 c-1 118 -30 262 -101 500 -20 66 -36 128 -35 138 0 9 0 17 -1 17 -1 0
-29 -19 -63 -43z"/>
<path d="M526 2895 c-22 -7 -53 -28 -70 -45 l-31 -30 -3 -636 c-2 -473 1 -640
9 -650 7 -8 10 -16 8 -19 -3 -2 -46 -6 -98 -8 -59 -3 -96 -9 -101 -17 -8 -13
-2 -48 10 -55 8 -5 378 -6 775 -2 l229 2 56 80 c30 44 125 186 209 315 85 129
159 238 165 242 8 5 12 129 14 396 l3 388 -26 24 -26 24 -542 3 c-449 2 -549
0 -581 -12z m968 -224 c23 -25 13 -61 -17 -62 -12 0 -172 0 -355 -1 -333 0
-362 3 -362 35 0 6 7 19 17 29 15 17 39 18 358 18 325 0 343 -1 359 -19z
m-265 -227 c102 -28 202 -121 246 -229 38 -95 31 -249 -16 -337 -56 -105 -153
-186 -251 -212 -233 -60 -456 154 -435 418 20 253 234 423 456 360z"/>
<path d="M1083 2369 c-89 -16 -147 -67 -196 -168 -76 -160 -14 -361 136 -435
133 -67 309 11 369 163 31 79 30 206 -1 276 -55 123 -178 188 -308 164z"/>
<path d="M7178 1510 c-265 -4 -299 -7 -315 -22 -39 -40 -13 -43 385 -45 1218
-5 1466 -4 1479 10 20 20 5 46 -31 52 -41 8 -1134 11 -1518 5z"/>
<path d="M9346 1509 c-43 -7 -65 -20 -66 -40 0 -18 66 -26 235 -27 214 -2 417
7 436 19 24 15 -9 36 -69 44 -78 11 -475 13 -536 4z"/>
<path d="M2093 1500 c-138 -3 -255 -8 -258 -12 -4 -4 -4 -19 -1 -33 l7 -26
534 3 c493 3 536 4 552 21 16 16 16 18 1 33 -14 14 -53 17 -300 18 -155 0
-396 -1 -535 -4z"/>
<path d="M3503 1500 c-28 -11 -30 -36 -4 -50 12 -6 132 -10 319 -10 258 0 301
2 312 16 11 12 10 18 -4 32 -15 15 -49 17 -309 19 -161 1 -302 -2 -314 -7z"/>
</g>
</svg>
